<svg xmlns="http://www.w3.org/2000/svg" viewBox="0 0 24 20.86"><title>grey-heart</title><g id="Layer_2" data-name="Layer 2"><g id="main"><path d="M22.17,2A6.81,6.81,0,0,0,17.42.2a7.64,7.64,0,0,0-3.82,1,8.52,8.52,0,0,0-1.51,1.05A9.08,9.08,0,0,0,10.61,1.1,7.79,7.79,0,0,0,6.83,0,6.82,6.82,0,0,0,2,1.64,6.51,6.51,0,0,0,0,6.58a9.79,9.79,0,0,0,.91,4.19c.17.38.36.76.57,1.13a16.62,16.62,0,0,0,1.85,2.64A22.73,22.73,0,0,0,6.76,17.8a26.49,26.49,0,0,0,4.15,2.63l.83.43.84-.4A25.66,25.66,0,0,0,16.83,18a22.91,22.91,0,0,0,3.55-3.12,16,16,0,0,0,2.55-3.67A9.88,9.88,0,0,0,24,7,6.49,6.49,0,0,0,22.17,2Z"/></g></g></svg>