<svg xmlns="http://www.w3.org/2000/svg" viewBox="0 0 30.59 31.01"><defs><style>.cls-1{fill:none;stroke:#a967bf;stroke-linecap:round;stroke-miterlimit:10;stroke-width:3px;}</style></defs><title>flag</title><g id="Layer_2" data-name="Layer 2"><g id="main"><path class="cls-1" d="M9.09,13.92a5.48,5.48,0,0,1,3.4-2.26,6.42,6.42,0,0,1,3.31.05,8.63,8.63,0,0,1,3.29,1.72,8.77,8.77,0,0,0,3.29,1.72,6.53,6.53,0,0,0,3.31,0,5.43,5.43,0,0,0,3.4-2.26V3.26a10.82,10.82,0,0,1-3.4,2,6.42,6.42,0,0,1-3.31,0,8.77,8.77,0,0,1-3.29-1.72A8.63,8.63,0,0,0,15.8,1.75a6.53,6.53,0,0,0-3.31-.05A5.48,5.48,0,0,0,9.09,4V22.73"/><path class="cls-1" d="M15.49,29.51a23.14,23.14,0,0,0-2.89-3.75,21.67,21.67,0,0,0-3.51-3,22.55,22.55,0,0,0-3.51,3A23.65,23.65,0,0,0,2.7,29.51Z"/></g></g></svg>