<svg xmlns="http://www.w3.org/2000/svg" viewBox="0 0 213.89 562.36"><defs><style>.cls-1{fill:none;stroke:#d4b3df;stroke-miterlimit:10;stroke-width:12px;}</style></defs><title>flagtall</title><g id="Layer_2" data-name="Layer 2"><g id="main"><path class="cls-1" d="M60.09,98.3q7.86-12.66,25.13-17.23a46.64,46.64,0,0,1,24.46.33A63.94,63.94,0,0,1,134,94.54a63.94,63.94,0,0,0,24.31,13.15,46.64,46.64,0,0,0,24.46.33q17.28-4.57,25.13-17.23V21Q200,33.69,182.76,38.26a46.64,46.64,0,0,1-24.46-.33A63.94,63.94,0,0,1,134,24.79a63.94,63.94,0,0,0-24.31-13.15,46.64,46.64,0,0,0-24.46-.33Q67.94,15.89,60.09,28.55V521.17"/><path class="cls-1" d="M106.93,556.36a138.67,138.67,0,0,0-21.14-19.43,160.89,160.89,0,0,0-25.7-15.75,160.91,160.91,0,0,0-25.7,15.75,138.77,138.77,0,0,0-21.14,19.43Z"/></g></g></svg>