<svg xmlns="http://www.w3.org/2000/svg" viewBox="0 0 36.25 31.18"><defs><style>.cls-1{fill:none;stroke:#ffc97b;stroke-linecap:round;stroke-miterlimit:10;stroke-width:3px;}</style></defs><title>heart</title><g id="Layer_2" data-name="Layer 2"><g id="main"><path class="cls-1" d="M18.13,29.5a39.74,39.74,0,0,1-6.42-4,35,35,0,0,1-5.28-4.9,23.43,23.43,0,0,1-3.6-5.48A13.2,13.2,0,0,1,1.5,9.52a7.86,7.86,0,0,1,2.16-6,8,8,0,0,1,5.74-2,9.33,9.33,0,0,1,4.7,1.31,13,13,0,0,1,4,3.78,12.82,12.82,0,0,1,4-3.78A9.37,9.37,0,0,1,26.86,1.5a8,8,0,0,1,5.73,2,7.86,7.86,0,0,1,2.16,6,13.33,13.33,0,0,1-1.32,5.63,23.47,23.47,0,0,1-3.61,5.48,35,35,0,0,1-5.28,4.9A40.09,40.09,0,0,1,18.13,29.5Z"/><path class="cls-1" d="M18.13,29.5a27.54,27.54,0,0,1-4.41-2.73,23.52,23.52,0,0,1-3.63-3.37,16.19,16.19,0,0,1-2.48-3.76,9.11,9.11,0,0,1-.91-3.87,5.4,5.4,0,0,1,1.49-4.11,5.48,5.48,0,0,1,3.94-1.41,6.4,6.4,0,0,1,3.23.91,8.79,8.79,0,0,1,2.77,2.59,8.76,8.76,0,0,1,2.76-2.59,6.44,6.44,0,0,1,3.24-.91,5.5,5.5,0,0,1,3.94,1.41,5.4,5.4,0,0,1,1.48,4.11,9.11,9.11,0,0,1-.91,3.87,15.88,15.88,0,0,1-2.48,3.76,23.9,23.9,0,0,1-3.62,3.37A28.45,28.45,0,0,1,18.13,29.5Z"/></g></g></svg>