<svg xmlns="http://www.w3.org/2000/svg" viewBox="0 0 261.95 414.96"><defs><style>.cls-1{fill:#333;}</style></defs><title>sanskrit-air</title><g id="Layer_2" data-name="Layer 2"><g id="main"><path class="cls-1" d="M240.61,0V108.94H172.69c-21.07,0-38-12.75-38-34.1,0-18,12.2-29.66,29.11-29.66,23.28,0,33,21.34,27.44,42.13l23.56-1.94c5.82-33-11.64-67.64-51.28-67.64-31.32,0-51.84,24.12-51.84,52.39,0,20,8.59,32.16,15.25,37.7v1.11H81.77v26.33H240.61v51H81.77v26.06H240.61v65.14a37.22,37.22,0,0,1-25.22,10.81c-17.46,0-26.06-14.69-31-39.08-41.86,3.6-66.53,29.94-66.53,64.31,0,23,11.09,36.31,17.74,41.86v1.11H87.07a47.26,47.26,0,0,0-18-29.39l-15.52,18c6.65,4.16,12.2,11.09,12.2,22.18,0,11.36-8,19.68-19.4,19.68-16.63,0-24.12-13.86-24.12-29.66,0-29.11,19.13-51.28,42.13-67.36L46.85,270.81C27.72,285.5,0,314.61,0,357.57c0,39.92,24.12,55.72,46.29,55.72,20.74,0,35.2-12.57,40.06-30.76H240.61V415H262V0Zm0,356.47H182.4c-26.06,0-41.58-15.52-41.58-39.36,0-24.67,17.46-36.31,32.71-38.53,4.71,20.24,18.57,36.31,38,36.31,11.36,0,20.79-4.16,28-11.64h1.11Z"/></g></g></svg>