<svg xmlns="http://www.w3.org/2000/svg" viewBox="0 0 327.93 586.81"><defs><style>.cls-1{fill:#333;}</style></defs><title>sanskrit-earth</title><g id="Layer_2" data-name="Layer 2"><g id="main"><path class="cls-1" d="M68.19,139.43H227v32.16h21.34V0H227V29.11h-59.6c-29.66,0-47.12,18.57-47.12,46.29,0,16.35,6.1,29.38,16.08,36.59v1.11H78.2C71.93,93.44,58.47,81.21,40.47,81.21,14.41,81.21,0,100.9,0,127.51c0,15,4.16,28.27,10.26,38l20-9.42c-4.71-6.38-8.59-16.91-8.59-27.72,0-14.69,7.21-22.73,18.3-22.73,12.47,0,20.24,11.36,22.17,33.82h6.1Zm102-84H227V113.1H181.29c-22.45,0-38-11.92-38-32.71C143.31,64.31,151.07,55.44,170.2,55.44Z"/><polygon class="cls-1" points="1.11 330.69 1.11 364.5 2.22 364.5 50.73 321.26 42.69 300.47 1.11 330.69"/><path class="cls-1" d="M288.56,436.85c-10,0-19.4,3.6-25.5,9.7l5.27,25.5a26.86,26.86,0,0,1,19.4-8.59c10.81,0,18.57,7.48,18.57,20,0,26.33-28.83,43.24-57.94,44.91V297.15H170.2c-27.16,0-51.83-16.08-51.83-50.45,0-30.21,23.56-40.75,34.37-42.13,1.39,5.54,2.5,10.81,4.16,16.08,9.15,33.82,26.06,52.94,53.22,52.94,23.84,0,41-16.08,41-42.69,0-25.5-16.91-42.69-37.7-42.69-10.81,0-19.13,4.16-24.12,9.15l6.93,23.28a23.77,23.77,0,0,1,15.8-6.65c10.53,0,16.63,7.21,16.63,16.91,0,10.81-6.93,16.91-18,16.91-14.69,0-26.06-7.76-36-43.52l-8.32-30.77C125,175.46,94.8,202.07,94.8,244.21c0,29.11,14.14,45.74,23.56,52.11v1.11H68.19v25.78H227V451H159.11c-21.07,0-38-12.75-38-34.1,0-18,12.2-29.66,29.11-29.66,23.28,0,33,21.34,27.44,42.13l23.56-1.94c5.82-33-11.64-67.64-51.28-67.64-31.32,0-51.84,24.12-51.84,52.39,0,20,8.59,32.16,15.25,37.7V451H68.19v26.33H227v51H68.19v26.06H227v32.43h21.34v-33c46-4.16,79.56-30.49,79.56-71.52C327.93,454.87,310.18,436.85,288.56,436.85Z"/></g></g></svg>