<svg xmlns="http://www.w3.org/2000/svg" viewBox="0 0 247.81 368.94"><defs><style>.cls-1{fill:#333;}</style></defs><title>sanskrit-water</title><g id="Layer_2" data-name="Layer 2"><g id="main"><path class="cls-1" d="M225.91,143.31H161.05a48.93,48.93,0,0,1-5.54-23.56,50,50,0,0,1,5.82-24.12,39.65,39.65,0,0,0,8.32-15.8h1.11c4.71,10,17.46,19.68,34.09,19.68,24.95,0,43-18,43-47.12,0-20-8.59-34.65-19.13-42.41L212.61,27.44c7.21,5,12.47,12.47,12.47,24.12,0,14.14-8.87,22.73-22.18,22.73-15.25,0-25.22-10.26-25.22-27.44V38H155v15c0,19.13-8.59,29.38-23,29.38s-26.06-10-26.06-28.83A43.43,43.43,0,0,1,124.46,18L106.72,0A70.13,70.13,0,0,0,83.16,53.22c0,33.82,21.62,54.88,49.34,54.88a31.81,31.81,0,0,0,5.27-.28,47.06,47.06,0,0,0-3.88,18.57,40.66,40.66,0,0,0,3.33,16.91H67.08v26.06H225.91v47.95h-59.6c-29.66,0-47.12,18.57-47.12,46.29,0,16.35,6.1,29.38,16.08,36.59v1.11H67.08v26.33H225.91v32.16h21.34V115.87H225.91Zm0,158H180.18c-22.45,0-38-11.92-38-32.71,0-16.08,7.76-24.95,26.89-24.95h56.82Z"/><polygon class="cls-1" points="0 335.12 0 368.94 1.11 368.94 49.62 325.7 41.58 304.91 0 335.12"/></g></g></svg>