<svg xmlns="http://www.w3.org/2000/svg" viewBox="0 0 32.1 31.38"><defs><style>.cls-1{fill:none;stroke:#94ecc9;stroke-linecap:round;stroke-miterlimit:10;stroke-width:3.2px;}</style></defs><title>symbol</title><g id="Layer_2" data-name="Layer 2"><g id="main"><path class="cls-1" d="M19.13,3.67A16.65,16.65,0,0,1,21.71,6a11.35,11.35,0,0,1,1.77,2.61,6.28,6.28,0,0,1,.65,2.69,3.71,3.71,0,0,1-1,2.87,4,4,0,0,1-2.78,1A4.59,4.59,0,0,1,18,14.54a6,6,0,0,1-2-1.8,6.1,6.1,0,0,1-1.95,1.82,4.68,4.68,0,0,1-2.28.64,4,4,0,0,1-2.8-1A3.74,3.74,0,0,1,8,11.38a6.4,6.4,0,0,1,.63-2.7,11.52,11.52,0,0,1,1.74-2.63A17.05,17.05,0,0,1,12.9,3.7,19.68,19.68,0,0,1,16,1.78,19.63,19.63,0,0,1,19.13,3.67Z"/><path class="cls-1" d="M1.64,26.7a19.3,19.3,0,0,1,.11-3.65,16.15,16.15,0,0,1,.76-3.39,11.25,11.25,0,0,1,1.4-2.82,6.26,6.26,0,0,1,2-1.9,3.76,3.76,0,0,1,3-.51,4,4,0,0,1,2.23,1.94,4.55,4.55,0,0,1,.59,2.3,6.22,6.22,0,0,1-.6,2.59,6.22,6.22,0,0,1,2.54.8,4.66,4.66,0,0,1,1.68,1.68,3.92,3.92,0,0,1,.53,2.9A3.73,3.73,0,0,1,14,29a6.46,6.46,0,0,1-2.66.77,11.32,11.32,0,0,1-3.14-.22,16.55,16.55,0,0,1-3.31-1.07A19.59,19.59,0,0,1,1.64,26.7Z"/><path class="cls-1" d="M30.45,26.77a19.93,19.93,0,0,1-3.21,1.73,16.91,16.91,0,0,1-3.32,1,11,11,0,0,1-3.15.19,6.14,6.14,0,0,1-2.65-.8,3.71,3.71,0,0,1-1.94-2.35,4,4,0,0,1,.56-2.9A4.64,4.64,0,0,1,18.43,22,6.3,6.3,0,0,1,21,21.25a6.28,6.28,0,0,1-.57-2.6,4.56,4.56,0,0,1,.61-2.3,3.91,3.91,0,0,1,2.25-1.91,3.72,3.72,0,0,1,3,.53,6.38,6.38,0,0,1,2,1.92,11.12,11.12,0,0,1,1.38,2.83,17.06,17.06,0,0,1,.73,3.4A19.31,19.31,0,0,1,30.45,26.77Z"/></g></g></svg>