<svg xmlns="http://www.w3.org/2000/svg" viewBox="0 0 41.33 31.17"><defs><style>.cls-1{fill:none;stroke:#f27676;stroke-linecap:square;stroke-miterlimit:10;stroke-width:3px;}</style></defs><title>temple</title><g id="Layer_2" data-name="Layer 2"><g id="main"><path class="cls-1" d="M34.52,14.38a20.54,20.54,0,0,0-3.26-4.85A30.7,30.7,0,0,0,26.5,5.19a35.67,35.67,0,0,0-5.78-3.52,35.33,35.33,0,0,0-5.79,3.52,31.16,31.16,0,0,0-4.76,4.34,20.19,20.19,0,0,0-3.25,4.85,15.22,15.22,0,0,0-1.2,5.8v9.49h10V21.9a4.5,4.5,0,1,1,9,0v7.77h11V20.18A15.22,15.22,0,0,0,34.52,14.38Z"/><path class="cls-1" d="M39.61,15.92A63.53,63.53,0,0,1,20.66,9.61,63.38,63.38,0,0,1,1.72,15.92"/></g></g></svg>