<svg xmlns="http://www.w3.org/2000/svg" viewBox="0 0 359.81 264.52"><defs><style>.cls-1{fill:#ef5454;}.cls-2{fill:none;stroke:#ef5454;stroke-linejoin:round;stroke-width:12px;}</style></defs><title>temple-big</title><g id="Layer_2" data-name="Layer 2"><g id="main"><path class="cls-1" d="M179.91,13.43a329.17,329.17,0,0,1,47,29.4,282.24,282.24,0,0,1,42.78,39.31,184.32,184.32,0,0,1,28.63,43c6.63,14.07,10.09,35.68,10.09,49.75v77.63H233.24V191.13c0-30.32-23.93-55-53.33-55s-53.34,24.66-53.34,55v61.39H51.38V174.89c0-14.06,3.47-35.67,10.09-49.76a184.69,184.69,0,0,1,28.64-43,281.83,281.83,0,0,1,42.78-39.3,328,328,0,0,1,47-29.4m0-13.43a339.37,339.37,0,0,0-54.23,33.23,293,293,0,0,0-44.59,41A195.78,195.78,0,0,0,50.61,120c-7.48,15.91-11.23,39.37-11.23,54.86v89.63h99.19V191.13c0-23.64,18.6-43,41.34-43s41.33,19.34,41.33,43v73.39h99.19V174.89c0-15.49-3.74-38.95-11.23-54.86a195.16,195.16,0,0,0-30.48-45.81,292.5,292.5,0,0,0-44.59-41A339.72,339.72,0,0,0,179.91,0Z"/><path class="cls-2" d="M358.87,134.54c-59.8-9.5-124.62-30.83-179-59.63C125.57,103.71,60.75,125,.94,134.54"/></g></g></svg>