<svg xmlns="http://www.w3.org/2000/svg" viewBox="0 0 302.2 222.41"><defs><style>.cls-1{fill:#f9bbbb;}.cls-2{fill:none;stroke:#f9bbbb;stroke-linejoin:round;stroke-width:8px;}</style></defs><title>temple-big</title><g id="Layer_2" data-name="Layer 2"><g id="main"><path class="cls-1" d="M151.1,8.94a278.29,278.29,0,0,1,40.79,25.4,239.08,239.08,0,0,1,36.29,33.34,157.07,157.07,0,0,1,24.4,36.64c5.7,12.11,8.68,30.66,8.68,42.72v67.36h-67.4V160.7c0-24.34-19.18-44.14-42.75-44.14s-42.75,19.8-42.75,44.14v53.7H40.95V147c0-12.05,3-30.6,8.68-42.72A157.36,157.36,0,0,1,74,67.68a239.26,239.26,0,0,1,36.29-33.34A278.37,278.37,0,0,1,151.1,8.94m0-8.94a285.38,285.38,0,0,0-45.59,27.94A246.1,246.1,0,0,0,68,62.4a164.58,164.58,0,0,0-25.63,38.52C36.1,114.3,32.95,134,32.95,147v75.36h83.4V160.7c0-19.88,15.64-36.14,34.75-36.14s34.75,16.26,34.75,36.14v61.7h83.4V147c0-13-3.15-32.75-9.44-46.13A164.29,164.29,0,0,0,234.19,62.4a245.92,245.92,0,0,0-37.49-34.46A285.35,285.35,0,0,0,151.1,0Z"/><path class="cls-2" d="M301.57,113.12c-50.28-8-104.78-25.93-150.47-50.14C105.42,87.2,50.91,105.14.63,113.12"/></g></g></svg>