<svg xmlns="http://www.w3.org/2000/svg" viewBox="0 0 218.78 185.97"><defs><style>.cls-1{fill:none;stroke:#ffc97b;stroke-linecap:round;stroke-miterlimit:10;stroke-width:8px;}</style></defs><title>white-heart</title><g id="Layer_2" data-name="Layer 2"><g id="main"><path class="cls-1" d="M109.39,181.5a254,254,0,0,1-40.67-25.18,220.68,220.68,0,0,1-33.44-31A148.26,148.26,0,0,1,12.42,90.55Q4,72.46,4,54.85,4,29.92,17.71,17T54.05,4a59,59,0,0,1,29.83,8.31q14.45,8.32,25.51,24,11.07-15.65,25.51-24A59,59,0,0,1,164.73,4q22.62,0,36.34,13t13.71,37.89q0,17.61-8.42,35.7a148.26,148.26,0,0,1-22.86,34.72,220.28,220.28,0,0,1-33.45,31.05A253.45,253.45,0,0,1,109.39,181.5Z"/><path class="cls-1" d="M109.39,181.48a174.82,174.82,0,0,1-27.95-17.31,151,151,0,0,1-23-21.34A101.46,101.46,0,0,1,42.75,119,57.73,57.73,0,0,1,37,94.44q0-17.13,9.43-26t25-8.91a40.55,40.55,0,0,1,20.5,5.72,55.49,55.49,0,0,1,17.53,16.46,55.6,55.6,0,0,1,17.53-16.46,40.59,40.59,0,0,1,20.51-5.72q15.54,0,25,8.91t9.42,26A57.73,57.73,0,0,1,176,119a101.77,101.77,0,0,1-15.71,23.86,151,151,0,0,1-23,21.34A174.82,174.82,0,0,1,109.39,181.48Z"/></g></g></svg>